<svg xmlns="http://www.w3.org/2000/svg" width="793.701" height="1122.52" viewBox="0 0 210 297">
  <path fill="#787878"
        d="M109.523 249.1h-8.218l-.082-24.736q-8.63-.164-17.258-1.972-8.63-1.9-17.34-5.588V202q8.382 5.26 16.93 7.97 8.63 2.63 17.75 2.712V175.2q-18.162-2.958-26.462-10.026-8.218-7.067-8.218-19.395 0-13.395 8.958-21.12 8.958-7.725 25.722-8.875V96.48h8.218v19.066q7.643.33 14.792 1.644 7.15 1.233 13.97 3.452v14.382q-6.82-3.452-14.053-5.342-7.15-1.9-14.7-2.22v35.1q18.655 2.876 27.448 10.273 8.793 7.396 8.793 20.216 0 13.888-9.37 21.942-9.286 7.97-26.873 9.204zm-8.218-88.015V127.38q-9.533 1.068-14.546 5.424-5.013 4.356-5.013 11.587 0 7.067 4.602 11.012 4.684 3.945 14.957 5.67zm8.218 15.78v35.584q10.437-1.397 15.696-5.917 5.342-4.52 5.342-11.916 0-7.232-5.095-11.505-5.013-4.273-15.943-6.246zm-4.74-128.585c11.247 18.808 24.627 32.793 38.544 47.342 9.25 9.67 18.814 19.667 28.244 31.662l.06.074.06.073c13.238 16.387 19.947 37.06 18.892 58.2a85.7 85.7 0 0 1-25.052 56.426c-16.225 16.226-37.798 25.16-60.745 25.16s-44.52-8.935-60.746-25.16c-15.093-15.092-24-35.132-25.055-56.427-1.057-21.15 5.65-41.822 18.9-58.2l.06-.073.06-.074C47.42 115.28 56.988 105.28 66.24 95.6c13.918-14.55 27.297-28.533 38.546-47.34m0-32.644c-17.9 47.192-47.954 64.68-77.97 102.863-31.762 39.318-29.37 97.077 7.172 133.62 19.55 19.55 45.173 29.325 70.797 29.325s51.246-9.774 70.796-29.325c36.543-36.543 38.93-94.302 7.167-133.62-30.015-38.183-60.064-55.67-77.963-102.863z"/>
</svg>
